<mxfile host="app.diagrams.net" modified="2024-04-26T05:17:31.528Z" agent="Mozilla/5.0 (Windows NT 10.0; Win64; x64) AppleWebKit/537.36 (KHTML, like Gecko) Chrome/124.0.0.0 Safari/537.36" etag="ewoxMXJP3lOeYactuzVg" version="24.3.0" type="github">
  <diagram name="Page-1" id="ysx84H75Bkz8ZvvxxNvY">
    <mxGraphModel dx="1750" dy="928" grid="1" gridSize="10" guides="1" tooltips="1" connect="1" arrows="1" fold="1" page="1" pageScale="1" pageWidth="850" pageHeight="1100" math="0" shadow="0">
      <root>
        <mxCell id="0" />
        <mxCell id="1" parent="0" />
        <mxCell id="UW4MRG3W_bxxon5KZCsn-1" value="" style="ellipse;fillColor=strokeColor;" vertex="1" parent="1">
          <mxGeometry x="283" y="20" width="14" height="14" as="geometry" />
        </mxCell>
        <mxCell id="UW4MRG3W_bxxon5KZCsn-2" value="BrowseProducts" style="swimlane;fontStyle=1;align=center;verticalAlign=middle;startSize=25;container=0;collapsible=0;rounded=1;arcSize=14;dropTarget=0;" vertex="1" parent="1">
          <mxGeometry x="190" y="84" width="202" height="340" as="geometry" />
        </mxCell>
        <mxCell id="UW4MRG3W_bxxon5KZCsn-3" value="" style="ellipse;fillColor=strokeColor;" vertex="1" parent="UW4MRG3W_bxxon5KZCsn-2">
          <mxGeometry x="98" y="33" width="14" height="14" as="geometry" />
        </mxCell>
        <mxCell id="UW4MRG3W_bxxon5KZCsn-4" value="ViewCatalog" style="rounded=1;absoluteArcSize=1;arcSize=14;whiteSpace=wrap;strokeWidth=2;" vertex="1" parent="UW4MRG3W_bxxon5KZCsn-2">
          <mxGeometry x="53" y="115" width="104" height="33" as="geometry" />
        </mxCell>
        <mxCell id="UW4MRG3W_bxxon5KZCsn-5" value="ClickProduct" style="rounded=1;absoluteArcSize=1;arcSize=14;whiteSpace=wrap;strokeWidth=2;" vertex="1" parent="UW4MRG3W_bxxon5KZCsn-2">
          <mxGeometry x="52" y="217" width="105" height="33" as="geometry" />
        </mxCell>
        <mxCell id="UW4MRG3W_bxxon5KZCsn-6" value="" style="ellipse;shape=endState;fillColor=strokeColor;" vertex="1" parent="UW4MRG3W_bxxon5KZCsn-2">
          <mxGeometry x="98" y="301" width="14" height="14" as="geometry" />
        </mxCell>
        <mxCell id="UW4MRG3W_bxxon5KZCsn-7" value="View Product Catalog" style="curved=1;startArrow=none;;exitX=0.4897324698311942;exitY=1;entryX=0.49861783247727615;entryY=0.012121200561523438;rounded=0;" edge="1" parent="UW4MRG3W_bxxon5KZCsn-2" source="UW4MRG3W_bxxon5KZCsn-3" target="UW4MRG3W_bxxon5KZCsn-4">
          <mxGeometry relative="1" as="geometry">
            <Array as="points" />
          </mxGeometry>
        </mxCell>
        <mxCell id="UW4MRG3W_bxxon5KZCsn-8" value="Click on Product" style="curved=1;startArrow=none;;exitX=0.49861783247727615;exitY=1.0242424589214902;entryX=0.5033929007393974;entryY=0.006060629179983428;rounded=0;" edge="1" parent="UW4MRG3W_bxxon5KZCsn-2" source="UW4MRG3W_bxxon5KZCsn-4" target="UW4MRG3W_bxxon5KZCsn-5">
          <mxGeometry relative="1" as="geometry">
            <Array as="points" />
          </mxGeometry>
        </mxCell>
        <mxCell id="UW4MRG3W_bxxon5KZCsn-9" value="" style="curved=1;startArrow=none;;exitX=0.5033929007393974;exitY=1.0181818875399502;entryX=0.4897324698311942;entryY=-0.028571265084402903;rounded=0;" edge="1" parent="UW4MRG3W_bxxon5KZCsn-2" source="UW4MRG3W_bxxon5KZCsn-5" target="UW4MRG3W_bxxon5KZCsn-6">
          <mxGeometry relative="1" as="geometry">
            <Array as="points" />
          </mxGeometry>
        </mxCell>
        <mxCell id="UW4MRG3W_bxxon5KZCsn-10" value="Checkout" style="swimlane;fontStyle=1;align=center;verticalAlign=middle;startSize=25;container=0;collapsible=0;rounded=1;arcSize=14;dropTarget=0;" vertex="1" parent="1">
          <mxGeometry x="20" y="492" width="541" height="525" as="geometry" />
        </mxCell>
        <mxCell id="UW4MRG3W_bxxon5KZCsn-11" value="" style="ellipse;fillColor=strokeColor;" vertex="1" parent="UW4MRG3W_bxxon5KZCsn-10">
          <mxGeometry x="276" y="33" width="14" height="14" as="geometry" />
        </mxCell>
        <mxCell id="UW4MRG3W_bxxon5KZCsn-12" value="Cart" style="rounded=1;absoluteArcSize=1;arcSize=14;whiteSpace=wrap;strokeWidth=2;" vertex="1" parent="UW4MRG3W_bxxon5KZCsn-10">
          <mxGeometry x="260" y="97" width="46" height="33" as="geometry" />
        </mxCell>
        <mxCell id="UW4MRG3W_bxxon5KZCsn-13" value="SelectPaymentMethod" style="rounded=1;absoluteArcSize=1;arcSize=14;whiteSpace=wrap;strokeWidth=2;" vertex="1" parent="UW4MRG3W_bxxon5KZCsn-10">
          <mxGeometry x="196" y="199" width="173" height="33" as="geometry" />
        </mxCell>
        <mxCell id="UW4MRG3W_bxxon5KZCsn-14" value="ProcessPayment" style="rounded=1;absoluteArcSize=1;arcSize=14;whiteSpace=wrap;strokeWidth=2;" vertex="1" parent="UW4MRG3W_bxxon5KZCsn-10">
          <mxGeometry x="152" y="301" width="129" height="33" as="geometry" />
        </mxCell>
        <mxCell id="UW4MRG3W_bxxon5KZCsn-15" value="PaymentSuccessful" style="rounded=1;absoluteArcSize=1;arcSize=14;whiteSpace=wrap;strokeWidth=2;" vertex="1" parent="UW4MRG3W_bxxon5KZCsn-10">
          <mxGeometry x="49" y="402" width="150" height="33" as="geometry" />
        </mxCell>
        <mxCell id="UW4MRG3W_bxxon5KZCsn-16" value="PaymentFailed" style="rounded=1;absoluteArcSize=1;arcSize=14;whiteSpace=wrap;strokeWidth=2;" vertex="1" parent="UW4MRG3W_bxxon5KZCsn-10">
          <mxGeometry x="249" y="402" width="120" height="33" as="geometry" />
        </mxCell>
        <mxCell id="UW4MRG3W_bxxon5KZCsn-17" value="" style="ellipse;shape=endState;fillColor=strokeColor;" vertex="1" parent="UW4MRG3W_bxxon5KZCsn-10">
          <mxGeometry x="302" y="486" width="14" height="14" as="geometry" />
        </mxCell>
        <mxCell id="UW4MRG3W_bxxon5KZCsn-18" value="" style="curved=1;startArrow=none;;exitX=0.46891771044049946;exitY=1;entryX=0.4905401727427607;entryY=0;rounded=0;" edge="1" parent="UW4MRG3W_bxxon5KZCsn-10" source="UW4MRG3W_bxxon5KZCsn-11" target="UW4MRG3W_bxxon5KZCsn-12">
          <mxGeometry relative="1" as="geometry">
            <Array as="points" />
          </mxGeometry>
        </mxCell>
        <mxCell id="UW4MRG3W_bxxon5KZCsn-19" value="Proceed to Payment" style="curved=1;startArrow=none;;exitX=0.4905401727427607;exitY=1.0121212583599668;entryX=0.5003748436194624;entryY=-0.0060605713815400095;rounded=0;" edge="1" parent="UW4MRG3W_bxxon5KZCsn-10" source="UW4MRG3W_bxxon5KZCsn-12" target="UW4MRG3W_bxxon5KZCsn-13">
          <mxGeometry relative="1" as="geometry">
            <Array as="points" />
          </mxGeometry>
        </mxCell>
        <mxCell id="UW4MRG3W_bxxon5KZCsn-20" value="Confirm Payment" style="curved=1;startArrow=none;;exitX=0.37490365794806063;exitY=1.0060606869784268;entryX=0.4992672232694404;entryY=-0.012121142763080019;rounded=0;" edge="1" parent="UW4MRG3W_bxxon5KZCsn-10" source="UW4MRG3W_bxxon5KZCsn-13" target="UW4MRG3W_bxxon5KZCsn-14">
          <mxGeometry relative="1" as="geometry">
            <Array as="points">
              <mxPoint x="216" y="266" />
            </Array>
          </mxGeometry>
        </mxCell>
        <mxCell id="UW4MRG3W_bxxon5KZCsn-21" value="Payment Successful" style="curved=1;startArrow=none;;exitX=0.26382795581370283;exitY=1.0000001155968867;entryX=0.4989036560058594;entryY=0.012121316158410275;rounded=0;" edge="1" parent="UW4MRG3W_bxxon5KZCsn-10" source="UW4MRG3W_bxxon5KZCsn-14" target="UW4MRG3W_bxxon5KZCsn-15">
          <mxGeometry relative="1" as="geometry">
            <Array as="points">
              <mxPoint x="124" y="368" />
            </Array>
          </mxGeometry>
        </mxCell>
        <mxCell id="UW4MRG3W_bxxon5KZCsn-22" value="Payment Failed" style="curved=1;startArrow=none;;exitX=0.734706490725178;exitY=1.0000001155968867;entryX=0.49979496002197266;entryY=0.012121316158410275;rounded=0;" edge="1" parent="UW4MRG3W_bxxon5KZCsn-10" source="UW4MRG3W_bxxon5KZCsn-14" target="UW4MRG3W_bxxon5KZCsn-16">
          <mxGeometry relative="1" as="geometry">
            <Array as="points">
              <mxPoint x="309" y="368" />
            </Array>
          </mxGeometry>
        </mxCell>
        <mxCell id="UW4MRG3W_bxxon5KZCsn-23" value="" style="curved=1;startArrow=none;;exitX=0.4989036560058594;exitY=1.0242425745183772;entryX=-0.0017574855259486607;entryY=0.39929348167988465;rounded=0;" edge="1" parent="UW4MRG3W_bxxon5KZCsn-10" source="UW4MRG3W_bxxon5KZCsn-15" target="UW4MRG3W_bxxon5KZCsn-17">
          <mxGeometry relative="1" as="geometry">
            <Array as="points">
              <mxPoint x="124" y="461" />
            </Array>
          </mxGeometry>
        </mxCell>
        <mxCell id="UW4MRG3W_bxxon5KZCsn-24" value="" style="curved=1;startArrow=none;;exitX=0.49979496002197266;exitY=1.0242425745183772;entryX=0.4982425144740513;entryY=-0.014285360063825334;rounded=0;" edge="1" parent="UW4MRG3W_bxxon5KZCsn-10" source="UW4MRG3W_bxxon5KZCsn-16" target="UW4MRG3W_bxxon5KZCsn-17">
          <mxGeometry relative="1" as="geometry">
            <Array as="points" />
          </mxGeometry>
        </mxCell>
        <mxCell id="UW4MRG3W_bxxon5KZCsn-25" value="Cancel Payment" style="curved=1;startArrow=none;;exitX=0.8014047894168189;exitY=1.0060606869784268;entryX=0.9982425144740513;entryY=0.3647945154395659;rounded=0;" edge="1" parent="UW4MRG3W_bxxon5KZCsn-10" source="UW4MRG3W_bxxon5KZCsn-13" target="UW4MRG3W_bxxon5KZCsn-17">
          <mxGeometry relative="1" as="geometry">
            <Array as="points">
              <mxPoint x="441" y="266" />
              <mxPoint x="441" y="461" />
            </Array>
          </mxGeometry>
        </mxCell>
        <mxCell id="UW4MRG3W_bxxon5KZCsn-26" value="" style="curved=1;startArrow=none;;exitX=0.5273568289620536;exitY=1;entryX=0.4969455227993502;entryY=0;rounded=0;" edge="1" parent="1" source="UW4MRG3W_bxxon5KZCsn-1" target="UW4MRG3W_bxxon5KZCsn-2">
          <mxGeometry relative="1" as="geometry">
            <Array as="points" />
          </mxGeometry>
        </mxCell>
        <mxCell id="UW4MRG3W_bxxon5KZCsn-27" value="Proceed to Checkout" style="curved=1;startArrow=none;;exitX=0.4969455227993502;exitY=0.9988235473632813;entryX=0.4997837257032694;entryY=1.0899135044642857e-8;rounded=0;" edge="1" parent="1" source="UW4MRG3W_bxxon5KZCsn-2" target="UW4MRG3W_bxxon5KZCsn-10">
          <mxGeometry relative="1" as="geometry">
            <Array as="points" />
          </mxGeometry>
        </mxCell>
      </root>
    </mxGraphModel>
  </diagram>
</mxfile>
